<svg width="24" height="24" viewBox="0 0 24 24" fill="none" xmlns="http://www.w3.org/2000/svg">
<path d="M9 2V4H15V2H17V4H21C21.5523 4 22 4.44772 22 5V21C22 21.5523 21.5523 22 21 22H3C2.44772 22 2 21.5523 2 21V5C2 4.44772 2.44772 4 3 4H7V2H9ZM20 11H4V20H20V11ZM7 6H4V9H20V6H17V7H15V6H9V7H7V6Z" fill="url(#paint0_linear_5_25)"/>
<g clip-path="url(#clip0_5_25)">
<path d="M12.0001 16.565L10.2368 17.5521L10.6306 15.57L9.14697 14.1979L11.1537 13.96L12.0001 12.125L12.8465 13.96L14.8533 14.1979L13.3697 15.57L13.7635 17.5521L12.0001 16.565Z" fill="url(#paint1_linear_5_25)"/>
</g>
<defs>
<linearGradient id="paint0_linear_5_25" x1="12" y1="2" x2="12" y2="22" gradientUnits="userSpaceOnUse">
<stop stop-color="#E8935F"/>
<stop offset="0.59375" stop-color="#E8935F"/>
<stop offset="1" stop-color="#421601"/>
</linearGradient>
<linearGradient id="paint1_linear_5_25" x1="12.0001" y1="12.125" x2="12.0001" y2="17.5521" gradientUnits="userSpaceOnUse">
<stop stop-color="#E8935F"/>
<stop offset="0.59375" stop-color="#E8935F"/>
<stop offset="1" stop-color="#421601"/>
</linearGradient>
<clipPath id="clip0_5_25">
<rect width="6" height="6" fill="white" transform="translate(9 12)"/>
</clipPath>
</defs>
</svg>
