<svg width="26" height="26" viewBox="0 0 26 26" fill="none" xmlns="http://www.w3.org/2000/svg">
<path d="M19.5015 18.4167V23.8333H17.3349V18.4167C17.3349 13.5944 20.1992 9.44123 24.3192 7.56548L25.216 9.53843C21.845 11.0731 19.5015 14.4713 19.5015 18.4167ZM8.66822 18.4167V23.8333H6.50155V18.4167C6.50155 14.4713 4.15805 11.0731 0.787109 9.53843L1.6839 7.56548C5.80395 9.44123 8.66822 13.5944 8.66822 18.4167ZM13.0015 13C10.01 13 7.58488 10.5749 7.58488 7.58334C7.58488 4.5918 10.01 2.16667 13.0015 2.16667C15.993 2.16667 18.4182 4.5918 18.4182 7.58334C18.4182 10.5749 15.993 13 13.0015 13ZM13.0015 10.8333C14.7965 10.8333 16.2515 9.37826 16.2515 7.58334C16.2515 5.78842 14.7965 4.33334 13.0015 4.33334C11.2067 4.33334 9.75154 5.78842 9.75154 7.58334C9.75154 9.37826 11.2067 10.8333 13.0015 10.8333Z" fill="url(#paint0_linear_4_5)"/>
<defs>
<linearGradient id="paint0_linear_4_5" x1="13.0016" y1="2.16667" x2="13.0016" y2="23.8333" gradientUnits="userSpaceOnUse">
<stop stop-color="#E8935F"/>
<stop offset="0.630208" stop-color="#E8935F"/>
<stop offset="1" stop-color="#421601"/>
</linearGradient>
</defs>
</svg>
